HIERARCHY
ROOT Hips
{
	OFFSET -224.689499 91.882057 -431.625488
	CHANNELS 6 Xposition Yposition Zposition Xrotation Yrotation Zrotation
	JOINT LeftUpLeg
	{
		OFFSET 0.103456 1.857840 10.548509
		CHANNELS 3 Xrotation Yrotation Zrotation
		JOINT LeftLeg
		{
			OFFSET 43.500000 -0.000042 0.000010
			CHANNELS 3 Xrotation Yrotation Zrotation
			JOINT LeftFoot
			{
				OFFSET 42.372192 0.000019 0.000000
				CHANNELS 3 Xrotation Yrotation Zrotation
				JOINT LeftToe
				{
					OFFSET 17.299999 -0.000000 0.000003
					CHANNELS 3 Xrotation Yrotation Zrotation
					End Site
					{
						OFFSET 0.000000 0.000000 0.000000
					}
				}
			}
		}
	}
	JOINT RightUpLeg
	{
		OFFSET 0.103456 1.857823 -10.548508
		CHANNELS 3 Xrotation Yrotation Zrotation
		JOINT RightLeg
		{
			OFFSET 43.500042 -0.000027 0.000004
			CHANNELS 3 Xrotation Yrotation Zrotation
			JOINT RightFoot
			{
				OFFSET 42.372261 0.000000 0.000010
				CHANNELS 3 Xrotation Yrotation Zrotation
				JOINT RightToe
				{
					OFFSET 17.299994 -0.000006 0.000017
					CHANNELS 3 Xrotation Yrotation Zrotation
					End Site
					{
						OFFSET 0.000000 0.000000 0.000000
					}
				}
			}
		}
	}
	JOINT Spine
	{
		OFFSET 6.901967 -2.603732 -0.000003
		CHANNELS 3 Xrotation Yrotation Zrotation
		JOINT Spine1
		{
			OFFSET 12.588099 0.000010 0.000008
			CHANNELS 3 Xrotation Yrotation Zrotation
			JOINT Spine2
			{
				OFFSET 12.343201 -0.000018 -0.000005
				CHANNELS 3 Xrotation Yrotation Zrotation
				JOINT Neck
				{
					OFFSET 25.832890 0.000023 0.000007
					CHANNELS 3 Xrotation Yrotation Zrotation
					JOINT Head
					{
						OFFSET 11.766609 -0.000008 -0.000006
						CHANNELS 3 Xrotation Yrotation Zrotation
						End Site
						{
							OFFSET 0.000000 0.000000 0.000000
						}
					}
				}
				JOINT LeftShoulder
				{
					OFFSET 19.745909 -1.480347 6.000101
					CHANNELS 3 Xrotation Yrotation Zrotation
					JOINT LeftArm
					{
						OFFSET 11.284133 0.000018 -0.000020
						CHANNELS 3 Xrotation Yrotation Zrotation
						JOINT LeftForeArm
						{
							OFFSET 33.000050 -0.000013 0.000019
							CHANNELS 3 Xrotation Yrotation Zrotation
							JOINT LeftHand
							{
								OFFSET 25.200005 0.000032 0.000011
								CHANNELS 3 Xrotation Yrotation Zrotation
								End Site
								{
									OFFSET 0.000000 0.000000 0.000000
								}
							}
						}
					}
				}
				JOINT RightShoulder
				{
					OFFSET 19.746101 -1.480358 -6.000078
					CHANNELS 3 Xrotation Yrotation Zrotation
					JOINT RightArm
					{
						OFFSET 11.284140 -0.000000 -0.000001
						CHANNELS 3 Xrotation Yrotation Zrotation
						JOINT RightForeArm
						{
							OFFSET 33.000103 0.000016 -0.000001
							CHANNELS 3 Xrotation Yrotation Zrotation
							JOINT RightHand
							{
								OFFSET 25.199762 0.000123 0.000432
								CHANNELS 3 Xrotation Yrotation Zrotation
								End Site
								{
									OFFSET 0.000000 0.000000 0.000000
								}
							}
						}
					}
				}
			}
		}
	}
}
MOTION
Frames: 5
Frame Time: 0.033333
0.000 93.174100 0.000 90.000000 90.000000 0.000000 179.999985 -0.000000 -179.000015 0.000011 0.000009 -3.000040 -0.000006 -0.000001 70.733900 -0.001131 0.002878 21.454600 -179.999969 0.000001 -179.000015 -0.000003 -0.000013 -3.000070 -0.000005 -0.000024 70.733900 0.001121 -0.002899 21.454600 -0.000000 0.000002 4.992470 -0.000000 -0.000046 -0.027917 0.000001 0.000091 -0.346014 -0.000045 -0.000001 -2.867910 0.000216 0.000185 -1.451300 67.287019 87.920473 112.370280 -0.151907 -0.803512 1.827041 -0.000064 -0.000002 -5.500030 -0.000004 0.000000 -0.000008 -67.292116 -87.920549 112.365189 0.133651 0.802937 1.827312 -0.024191 0.015284 -5.500030 -0.000412 0.003219 0.001818
-224.689499 91.882057 -431.625488 -61.103681 87.687449 145.325042 -177.958375 -1.585036 173.879830 -8.549952 -0.178971 -8.306565 -5.865664 -3.531784 72.207451 -0.001132 0.002878 21.454553 172.469099 8.078653 172.487586 10.406869 1.259038 -10.431183 6.818079 4.927976 77.550057 0.001122 -0.002907 21.454560 0.134488 -0.412250 6.939744 0.216913 -0.844198 3.866048 0.214649 -0.844066 3.547913 -2.432609 -6.198092 4.776986 -4.185914 12.292595 -17.817684 83.867379 87.901279 100.012464 -10.339432 13.922325 0.792996 -5.329070 -15.075793 -23.890941 30.987630 1.679131 8.635876 -63.409464 -87.286947 124.411231 5.702650 -12.556844 -4.145158 5.021210 15.180670 -22.746302 -14.636803 1.497329 7.668511 
-224.692001 91.882378 -431.627106 -61.104848 87.687393 145.322502 -177.970397 -1.585306 173.878040 -8.560361 -0.179434 -8.306263 -5.870080 -3.530366 72.207597 -0.001132 0.002881 21.454553 172.493195 8.074506 172.484037 10.418239 1.255527 -10.439371 6.818456 4.931367 77.553473 0.001119 -0.002892 21.454558 0.134481 -0.412247 6.939751 0.216933 -0.844192 3.867348 0.214662 -0.844074 3.549227 -2.425623 -6.192359 4.785551 -4.177633 12.277535 -17.818612 83.535901 87.898531 100.358232 -10.372520 13.901255 0.771051 -5.318854 -15.060799 -23.878311 30.976077 1.668216 8.627788 -63.293563 -87.284332 124.520738 5.730468 -12.561930 -4.124048 5.026391 15.179410 -22.765481 -14.682571 1.514399 7.668616 
-224.714798 91.882637 -431.638702 -61.200814 87.695455 145.385850 -178.005203 -1.604180 173.862536 -8.576390 -0.184094 -8.331236 -5.880063 -3.526143 72.213205 -0.001131 0.002880 21.454553 172.475903 8.059303 172.483856 10.410854 1.241952 -10.485406 6.811306 4.955779 77.576583 0.001120 -0.002897 21.454557 0.134539 -0.412232 6.947319 0.217156 -0.844128 3.882512 0.214889 -0.844018 3.564378 -2.370525 -6.207414 4.839828 -4.127122 12.304455 -17.859748 83.719282 87.894806 100.224300 -10.480741 13.914909 0.737378 -5.334719 -15.072109 -23.915128 30.930982 1.589894 8.667559 -62.900423 -87.275864 124.895641 5.736081 -12.588695 -4.089159 5.049840 15.214475 -22.796344 -14.582520 1.595385 7.646616 
-224.735596 91.882149 -431.649902 -61.371322 87.707483 145.532829 -177.933554 -1.643599 173.865951 -8.516709 -0.195187 -8.371575 -5.838275 -3.569560 72.219908 -0.001132 0.002881 21.454553 172.462464 8.031427 172.484130 10.416673 1.214948 -10.521020 6.817232 4.937448 77.578784 0.001122 -0.002901 21.454560 0.134834 -0.414515 6.949923 0.217232 -0.844131 3.887655 0.226164 -0.843293 3.569686 -2.368404 -6.176519 4.916421 -4.118771 12.291468 -17.885780 83.135373 87.891298 100.820550 -10.515821 13.830338 0.674128 -5.329814 -15.027508 -23.963076 31.070871 1.547475 8.644196 -62.944707 -87.271620 124.899062 5.740386 -12.632042 -4.090206 5.047273 15.212873 -22.789843 -14.653151 1.593424 7.651291 
